<svg width="40" height="50" viewBox="0 0 40 50" xmlns="http://www.w3.org/2000/svg">
  <!-- 그림자 -->
  <ellipse cx="22" cy="47" rx="8" ry="3" fill="#000000" opacity="0.2"/>
  
  <!-- 마커 배경 (둥근 핀 모양) -->
  <path d="M20 2 C28 2, 34 8, 34 16 C34 24, 20 42, 20 42 S6 24, 6 16 C6 8, 12 2, 20 2 Z" fill="#4FC3F7" stroke="#29B6F6" stroke-width="2"/>
  
  <!-- 내부 원 -->
  <circle cx="20" cy="16" r="10" fill="#E1F5FE" stroke="#81D4FA" stroke-width="1"/>
  
  <!-- 생수병 -->
  <g transform="translate(20,16)">
    <!-- 병 몸체 -->
    <ellipse cx="0" cy="2" rx="4" ry="5" fill="#29B6F6"/>
    <!-- 병 목 -->
    <rect x="-1.5" y="-3" width="3" height="4" rx="1" fill="#29B6F6"/>
    <!-- 뚜껑 -->
    <rect x="-2" y="-5" width="4" height="2" rx="1" fill="#FF5722"/>
    <!-- 물 -->
    <ellipse cx="0" cy="2" rx="2.5" ry="3.5" fill="#E3F2FD"/>
    <!-- 물결 -->
    <path d="M-2.5 0 Q0 -1 2.5 0" stroke="#81D4FA" stroke-width="1" fill="none"/>
    <path d="M-2.5 3 Q0 2 2.5 3" stroke="#81D4FA" stroke-width="1" fill="none"/>
  </g>
  
  <!-- 하이라이트 -->
  <circle cx="16" cy="12" r="3" fill="#FFFFFF" opacity="0.6"/>
  
  <!-- 반짝임 효과 -->
  <circle cx="17" cy="11" r="1" fill="#FFFFFF" opacity="0.9"/>
  <circle cx="24" cy="18" r="0.5" fill="#FFFFFF" opacity="0.7"/>
</svg>
